# xmcd
#
# Track frame offsets: 
#        150
#        20752
#        34527
#        54545
#        74602
#        98587
#        124232
#        142812
#        156565
#        182902
#        197257
#        214037
#        232902
#        259007
#        276217
#
# Disc length: 3914 seconds
#
# Revision: 0
# Processed by: cddbd v1.5.2PL0 Copyright (c) Steve Scherf et al.
# Submitted via: ExactAudioCopy v1.0b1
#
DISCID=d40f480f
DTITLE=Ben Harper - Diamonds On The Inside
DYEAR=1900
DGENRE=Blues
TTITLE0=With My Own Two Hands
TTITLE1=When It's Good
TTITLE2=Diamonds On The Inside
TTITLE3=Touch From Your Lust
TTITLE4=When She Believes
TTITLE5=Brown Eyed Blues
TTITLE6=Bring The Funk
TTITLE7=Everything
TTITLE8=Amen Omen
TTITLE9=Temporary Remedy
TTITLE10=So High So Low
TTITLE11=Blessed To Be A Witness
TTITLE12=Picture Of Jesus
TTITLE13=She's Only Happy In The Sun
TTITLE14=With My Own Two Hands (Remix)
EXTD=
EXTT0=
EXTT1=
EXTT2=
EXTT3=
EXTT4=
EXTT5=
EXTT6=
EXTT7=
EXTT8=
EXTT9=
EXTT10=
EXTT11=
EXTT12=
EXTT13=
EXTT14=
PLAYORDER=
